<svg xmlns="http://www.w3.org/2000/svg" viewBox="0 0 66.77 129.41" fill="#000"  width="35px" height="35px" ><defs></defs><g id="Layer_2" data-name="Layer 2"><g id="Layer_1-2" data-name="Layer 1"><path class="cls-1" d="M42.88,129.41H19.6V70.59H0V47.3H19.58v-1c0-5.24,0-10.48,0-15.72a34.16,34.16,0,0,1,3.68-16.31C27,7.29,32.82,3.09,40.37,1.11a41.42,41.42,0,0,1,12.35-1c4.66.18,9.32.44,14,.67v21.1h-1c-4.09,0-8.18,0-12.26,0a18.66,18.66,0,0,0-4,.51,7.86,7.86,0,0,0-6.56,7.47c-.18,1.83-.18,3.68-.2,5.53,0,3.61,0,7.21,0,10.82v1.07H65.38c-1,7.81-1.94,15.52-2.91,23.27H42.88Z"/></g></g></svg>