<svg id="Layer_1" data-name="Layer 1" xmlns="http://www.w3.org/2000/svg" viewBox="0 0 384 352"><defs><style>.cls-1{font-size:229.13px;font-family:Montserrat-SemiBold, Montserrat;font-weight:600;}.cls-1,.cls-2,.cls-5{fill:#fff;}.cls-2{font-size:86.72px;font-family:Montserrat-Regular, Montserrat;letter-spacing:0.19em;}.cls-3{letter-spacing:0.19em;}.cls-4{letter-spacing:0.2em;}</style></defs><title>LOGO</title><text class="cls-1" transform="translate(35.39 214.02)">SB</text><text class="cls-2" transform="translate(36.11 294.79)">F<tspan class="cls-3" x="71.46" y="0">OT</tspan><tspan class="cls-4" x="226.95" y="0">O</tspan></text><text class="cls-2" transform="translate(36.11 294.79)">F<tspan class="cls-3" x="71.46" y="0">OT</tspan><tspan class="cls-4" x="226.95" y="0">O</tspan></text><rect class="cls-5" x="3" y="1" width="94" height="17"/><rect class="cls-5" y="1" width="18" height="95"/><rect class="cls-5" x="380.5" y="111.5" width="94" height="17" transform="translate(494.5 -377.5) rotate(90)"/><rect class="cls-5" x="379.5" y="31.5" width="18" height="95" transform="translate(414.5 -379.5) rotate(90)"/><rect class="cls-5" x="340" y="405" width="94" height="17" transform="translate(721 757) rotate(180)"/><rect class="cls-5" x="419" y="327" width="18" height="95" transform="translate(803 679) rotate(180)"/><rect class="cls-5" x="14.5" y="363.5" width="94" height="17" transform="translate(-363.5 363.5) rotate(-90)"/><rect class="cls-5" x="91.5" y="365.5" width="18" height="95" transform="translate(-365.5 443.5) rotate(-90)"/></svg>