<svg id="Layer_1" data-name="Layer 1" xmlns="http://www.w3.org/2000/svg" viewBox="0 0 384 352"><defs><style>.cls-1{isolation:isolate;}.cls-2{fill:#fff;}</style></defs><g class="cls-1"><path class="cls-2" d="M71.25,210.24q-16.84-5.61-26.47-14.55l8.48-17.87q9.16,8.25,23.49,13.4a86.18,86.18,0,0,0,29.44,5.16q19.94,0,29.79-6.76t9.85-18a17.73,17.73,0,0,0-5.38-13.4,35.94,35.94,0,0,0-13.29-7.91q-7.91-2.74-22.34-6.18a230.24,230.24,0,0,1-29.22-8.71,48.23,48.23,0,0,1-19-13.41q-7.9-9-7.9-24.4a41.25,41.25,0,0,1,6.76-23.14Q62.19,64.18,76,58t34.14-6.18A108.15,108.15,0,0,1,138,55.46,74.53,74.53,0,0,1,161.64,66l-7.56,18.33a83.32,83.32,0,0,0-21.54-9.74,80.56,80.56,0,0,0-22.45-3.32q-19.49,0-29.22,7.11T71.13,96.71a17.56,17.56,0,0,0,5.5,13.4,38.12,38.12,0,0,0,13.64,8,212.93,212.93,0,0,0,22.11,6.07,224.19,224.19,0,0,1,29.1,8.71,48.94,48.94,0,0,1,18.9,13.29q7.91,8.93,7.91,24.06a41,41,0,0,1-6.88,23q-6.87,10.44-20.85,16.5t-34.37,6.07A109.82,109.82,0,0,1,71.25,210.24Z"/><path class="cls-2" d="M331.65,144.94q8,10.2,8,25.77,0,20.86-15.69,32.08T278.26,214H201.74V53.63h71.94q27.49,0,42.51,11t15,30.47q0,12.6-5.84,21.77a38.09,38.09,0,0,1-15.69,14Q323.63,134.74,331.65,144.94Zm-107-72.75v51.32h47q17.64,0,27.15-6.53t9.51-19.13q0-12.6-9.51-19.13t-27.15-6.53Zm82,116.85q9.84-6.4,9.85-20.16,0-26.81-39.18-26.81h-52.7v53.39h52.7Q296.82,195.46,306.68,189Z"/></g><g class="cls-1"><g class="cls-1"><path class="cls-2" d="M52.41,239.64v23.84h31.4V269H52.41v25.76H46v-60.7H87.62v5.55Z"/></g><g class="cls-1"><path class="cls-2" d="M127.65,291.28a29.43,29.43,0,0,1-11.45-11.06,32.28,32.28,0,0,1,0-31.56,29.36,29.36,0,0,1,11.45-11.06,35.17,35.17,0,0,1,32.6,0,29.58,29.58,0,0,1,11.41,11.06,32.18,32.18,0,0,1,0,31.65,29.51,29.51,0,0,1-11.41,11.06,35.13,35.13,0,0,1-32.6,0ZM157,286.33a23.55,23.55,0,0,0,9.11-9,26.86,26.86,0,0,0,0-25.76,23.64,23.64,0,0,0-9.11-9,27.75,27.75,0,0,0-26.06,0,23.78,23.78,0,0,0-9.19,9,26.5,26.5,0,0,0,0,25.76,23.69,23.69,0,0,0,9.19,9,27.67,27.67,0,0,0,26.06,0Z"/><path class="cls-2" d="M217.62,239.64H196.28v-5.55h49.09v5.55H224v55.15h-6.41Z"/></g><g class="cls-1"><path class="cls-2" d="M283.14,291.28a29.43,29.43,0,0,1-11.45-11.06,32.28,32.28,0,0,1,0-31.56,29.36,29.36,0,0,1,11.45-11.06,35.17,35.17,0,0,1,32.6,0,29.58,29.58,0,0,1,11.41,11.06,32.18,32.18,0,0,1,0,31.65,29.51,29.51,0,0,1-11.41,11.06,35.13,35.13,0,0,1-32.6,0Zm29.35-4.95a23.55,23.55,0,0,0,9.11-9,26.86,26.86,0,0,0,0-25.76,23.64,23.64,0,0,0-9.11-9,27.75,27.75,0,0,0-26.06,0,23.78,23.78,0,0,0-9.19,9,26.5,26.5,0,0,0,0,25.76,23.69,23.69,0,0,0,9.19,9,27.67,27.67,0,0,0,26.06,0Z"/></g></g><g class="cls-1"><g class="cls-1"><path class="cls-2" d="M52.41,239.64v23.84h31.4V269H52.41v25.76H46v-60.7H87.62v5.55Z"/></g><g class="cls-1"><path class="cls-2" d="M127.65,291.28a29.43,29.43,0,0,1-11.45-11.06,32.28,32.28,0,0,1,0-31.56,29.36,29.36,0,0,1,11.45-11.06,35.17,35.17,0,0,1,32.6,0,29.58,29.58,0,0,1,11.41,11.06,32.18,32.18,0,0,1,0,31.65,29.51,29.51,0,0,1-11.41,11.06,35.13,35.13,0,0,1-32.6,0ZM157,286.33a23.55,23.55,0,0,0,9.11-9,26.86,26.86,0,0,0,0-25.76,23.64,23.64,0,0,0-9.11-9,27.75,27.75,0,0,0-26.06,0,23.78,23.78,0,0,0-9.19,9,26.5,26.5,0,0,0,0,25.76,23.69,23.69,0,0,0,9.19,9,27.67,27.67,0,0,0,26.06,0Z"/><path class="cls-2" d="M217.62,239.64H196.28v-5.55h49.09v5.55H224v55.15h-6.41Z"/></g><g class="cls-1"><path class="cls-2" d="M283.14,291.28a29.43,29.43,0,0,1-11.45-11.06,32.28,32.28,0,0,1,0-31.56,29.36,29.36,0,0,1,11.45-11.06,35.17,35.17,0,0,1,32.6,0,29.58,29.58,0,0,1,11.41,11.06,32.18,32.18,0,0,1,0,31.65,29.51,29.51,0,0,1-11.41,11.06,35.13,35.13,0,0,1-32.6,0Zm29.35-4.95a23.55,23.55,0,0,0,9.11-9,26.86,26.86,0,0,0,0-25.76,23.64,23.64,0,0,0-9.11-9,27.75,27.75,0,0,0-26.06,0,23.78,23.78,0,0,0-9.19,9,26.5,26.5,0,0,0,0,25.76,23.69,23.69,0,0,0,9.19,9,27.67,27.67,0,0,0,26.06,0Z"/></g></g><rect class="cls-2" x="3" y="1" width="94" height="17"/><rect class="cls-2" y="1" width="18" height="95"/><rect class="cls-2" x="366" y="3" width="17" height="94"/><rect class="cls-2" x="288" width="95" height="18"/><rect class="cls-2" x="287" y="335" width="94" height="17"/><rect class="cls-2" x="366" y="257" width="18" height="95"/><rect class="cls-2" y="255" width="17" height="94"/><rect class="cls-2" y="334" width="95" height="18"/></svg>