<svg id="Layer_1" data-name="Layer 1" xmlns="http://www.w3.org/2000/svg" viewBox="0 0 384 352"><defs><style>.cls-1{isolation:isolate;}.cls-2{fill:#fff;}</style></defs><g class="cls-1"><path class="cls-2" d="M70.33,211.61q-17.76-5.15-28.52-13.4l12.6-28A85.32,85.32,0,0,0,78.92,182.4,91.94,91.94,0,0,0,107.34,187q15.81,0,23.37-4.69t7.56-12.49a11.93,11.93,0,0,0-4.47-9.51,34,34,0,0,0-11.45-6.07q-7-2.29-18.91-5a261.09,261.09,0,0,1-30-8.71,48.68,48.68,0,0,1-20.05-14Q45,116.88,45,100.83a44.64,44.64,0,0,1,7.56-25.32q7.57-11.34,22.8-18t37.24-6.64a122.94,122.94,0,0,1,30,3.67,88.45,88.45,0,0,1,25.67,10.54L156.83,93.27q-22.23-12.6-44.45-12.6-15.59,0-23,5T81.9,99q0,8.25,8.6,12.26t26.23,7.9a261.33,261.33,0,0,1,30,8.71,49.73,49.73,0,0,1,20.05,13.74q8.35,9.4,8.36,25.44a43.79,43.79,0,0,1-7.68,25.09q-7.68,11.34-23,18t-37.35,6.65A131.15,131.15,0,0,1,70.33,211.61Z"/><path class="cls-2" d="M339.9,145.17q7.78,10.2,7.79,25.09,0,21.08-16.38,32.42T283.53,214H200.59V53.63H279q29.32,0,45,11.23t15.69,30.47a38.54,38.54,0,0,1-21.31,35.29Q332.11,135,339.9,145.17ZM237.48,81.58v37.81h36.89q13.74,0,20.85-4.81t7.1-14.21q0-9.39-7.1-14.09t-20.85-4.7Zm65.42,99.67q7.44-4.8,7.44-14.89,0-19.94-29.55-19.93H237.48v39.64h43.31Q295.45,186.07,302.9,181.25Z"/></g><g class="cls-1"><g class="cls-1"><path class="cls-2" d="M52.41,239.64v23.84h31.4V269H52.41v25.76H46v-60.7H87.62v5.55Z"/></g><g class="cls-1"><path class="cls-2" d="M127.65,291.28a29.43,29.43,0,0,1-11.45-11.06,32.28,32.28,0,0,1,0-31.56,29.36,29.36,0,0,1,11.45-11.06,35.17,35.17,0,0,1,32.6,0,29.58,29.58,0,0,1,11.41,11.06,32.18,32.18,0,0,1,0,31.65,29.51,29.51,0,0,1-11.41,11.06,35.13,35.13,0,0,1-32.6,0ZM157,286.33a23.55,23.55,0,0,0,9.11-9,26.86,26.86,0,0,0,0-25.76,23.64,23.64,0,0,0-9.11-9,27.75,27.75,0,0,0-26.06,0,23.78,23.78,0,0,0-9.19,9,26.5,26.5,0,0,0,0,25.76,23.69,23.69,0,0,0,9.19,9,27.67,27.67,0,0,0,26.06,0Z"/><path class="cls-2" d="M217.62,239.64H196.28v-5.55h49.09v5.55H224v55.15h-6.41Z"/></g><g class="cls-1"><path class="cls-2" d="M283.14,291.28a29.43,29.43,0,0,1-11.45-11.06,32.28,32.28,0,0,1,0-31.56,29.36,29.36,0,0,1,11.45-11.06,35.17,35.17,0,0,1,32.6,0,29.58,29.58,0,0,1,11.41,11.06,32.18,32.18,0,0,1,0,31.65,29.51,29.51,0,0,1-11.41,11.06,35.13,35.13,0,0,1-32.6,0Zm29.35-4.95a23.55,23.55,0,0,0,9.11-9,26.86,26.86,0,0,0,0-25.76,23.64,23.64,0,0,0-9.11-9,27.75,27.75,0,0,0-26.06,0,23.78,23.78,0,0,0-9.19,9,26.5,26.5,0,0,0,0,25.76,23.69,23.69,0,0,0,9.19,9,27.67,27.67,0,0,0,26.06,0Z"/></g></g><g class="cls-1"><g class="cls-1"><path class="cls-2" d="M52.41,239.64v23.84h31.4V269H52.41v25.76H46v-60.7H87.62v5.55Z"/></g><g class="cls-1"><path class="cls-2" d="M127.65,291.28a29.43,29.43,0,0,1-11.45-11.06,32.28,32.28,0,0,1,0-31.56,29.36,29.36,0,0,1,11.45-11.06,35.17,35.17,0,0,1,32.6,0,29.58,29.58,0,0,1,11.41,11.06,32.18,32.18,0,0,1,0,31.65,29.51,29.51,0,0,1-11.41,11.06,35.13,35.13,0,0,1-32.6,0ZM157,286.33a23.55,23.55,0,0,0,9.11-9,26.86,26.86,0,0,0,0-25.76,23.64,23.64,0,0,0-9.11-9,27.75,27.75,0,0,0-26.06,0,23.78,23.78,0,0,0-9.19,9,26.5,26.5,0,0,0,0,25.76,23.69,23.69,0,0,0,9.19,9,27.67,27.67,0,0,0,26.06,0Z"/><path class="cls-2" d="M217.62,239.64H196.28v-5.55h49.09v5.55H224v55.15h-6.41Z"/></g><g class="cls-1"><path class="cls-2" d="M283.14,291.28a29.43,29.43,0,0,1-11.45-11.06,32.28,32.28,0,0,1,0-31.56,29.36,29.36,0,0,1,11.45-11.06,35.17,35.17,0,0,1,32.6,0,29.58,29.58,0,0,1,11.41,11.06,32.18,32.18,0,0,1,0,31.65,29.51,29.51,0,0,1-11.41,11.06,35.13,35.13,0,0,1-32.6,0Zm29.35-4.95a23.55,23.55,0,0,0,9.11-9,26.86,26.86,0,0,0,0-25.76,23.64,23.64,0,0,0-9.11-9,27.75,27.75,0,0,0-26.06,0,23.78,23.78,0,0,0-9.19,9,26.5,26.5,0,0,0,0,25.76,23.69,23.69,0,0,0,9.19,9,27.67,27.67,0,0,0,26.06,0Z"/></g></g><rect class="cls-2" x="3" y="1" width="94" height="17"/><rect class="cls-2" y="1" width="18" height="95"/><rect class="cls-2" x="366" y="3" width="17" height="94"/><rect class="cls-2" x="288" width="95" height="18"/><rect class="cls-2" x="287" y="335" width="94" height="17"/><rect class="cls-2" x="366" y="257" width="18" height="95"/><rect class="cls-2" y="255" width="17" height="94"/><rect class="cls-2" y="334" width="95" height="18"/></svg>